<svg viewBox="0 0 12.7 12.7" xmlns="http://www.w3.org/2000/svg"><path d="M6.35.56c-.138 0-.15.633-.293 1.597-.128.856-.231.981-.553.82a11.8 11.8 0 0 0-1.458-.633c-.848-.3-1.025-.229-.467.343.524.538.901.771 1.22 1.015.214.164.122.295-.094.43-.355.224-1.27.722-2.266 1.471-1.184.89.136.362 1.857-.354 1.187-.493 1.64-.925 1.358.14-.118.445-.437.902-1.602 1.296-.2.067-.285.139.037.4.302.245 1.008 1.103 1.253 1.685.16.392.306.709.593 1.954.233 1.01.273 1.416.415 1.416.142 0 .182-.406.415-1.416.287-1.245.432-1.562.593-1.954.245-.582.951-1.44 1.253-1.685.322-.261.237-.333.037-.4-1.165-.394-1.484-.851-1.602-1.297-.282-1.064.17-.632 1.358-.139 1.72.716 3.04 1.244 1.857.354-.996-.749-1.911-1.247-2.266-1.47-.216-.136-.308-.267-.094-.43.319-.245.696-.478 1.22-1.016.558-.572.38-.644-.467-.343a11.8 11.8 0 0 0-1.458.633c-.322.161-.425.036-.553-.82C6.5 1.193 6.488.56 6.35.56Zm0 5.585c.082 0 .266.2.43.354.596.557.583.423.097 1.106-.223.313-.333.544-.527.544s-.304-.231-.527-.544c-.486-.683-.499-.55.096-1.106.165-.154.35-.354.431-.354Z"/></svg>