<svg viewBox="0 0 12.7 12.7" xmlns="http://www.w3.org/2000/svg"><path d="M7.283 11.121a16.025 16.225 0 0 1-.48-.82c-.377-.681-.614-1.224-.126-1.484.295-.16.52.262.76.704.29.531.565.858.787.688.312-.24.487-.416.195-.763-.237-.28-1.36-1.276-.805-1.815a2.7 2.7 0 0 1 .827-.57c.392-.168.133-.281-.106-.454l-1.326-.956L5.23 4.366 3 2.758c-.293-.209-.597-.43-.243-.922.287-.397.462-.385 1.295.216 1.389 1.003 3.247 2.353 4.37 3.164 2.11 1.523 2.516 1.771.397 2.53-.506.181-.566.32-.409.463.182.172.746.686.98 1.047.294.455.226.728-.01 1.113-.208.342-.751 1.07-1.116 1.408-.27.248-.487.11-.98-.657ZM5.097 8.458c-.047-.092-.08-.536-.08-1.006 0-.504.013-.77.31-.645.15.064.449.186.447.503-.004.63.133.708.572.254.3-.31.098-.436-2.08-2.008-.539-.39-.876-.606-1.118-.817-.305-.266-.265-.445-.154-.819.12-.4.516-.072 1.274.476l2.69 1.942c.595.43.227 1.433-.146 1.865-.422.42-.607.51-.922.553-.362.05-.624.097-.792-.298Z"/></svg>