<svg viewBox="0 0 12.7 12.7" xmlns="http://www.w3.org/2000/svg"><path d="M1.529 5.4c-.527.45-.733 1.276-.63 1.393.107.122.963.056 1.485-.4L4.7 4.416l2.314-1.977c.533-.444.732-1.28.628-1.404-.1-.12-.947-.046-1.473.404l-2.32 1.98ZM3.6 7.829c-.526.45-.733 1.275-.63 1.392.108.122.964.056 1.486-.4l2.315-1.977 2.314-1.977c.533-.444.732-1.28.628-1.404-.1-.12-.947-.046-1.474.404l-2.32 1.98Zm2.086 2.442c-.526.45-.733 1.275-.629 1.393.107.122.963.055 1.485-.401l2.315-1.977 2.314-1.976c.533-.445.732-1.28.628-1.405-.1-.12-.947-.046-1.474.404L8.006 8.29Z"/></svg>