<svg viewBox="0 0 12.7 12.7" xmlns="http://www.w3.org/2000/svg"><path d="m4.808 1.2-.087.003c-.519.017-.618.177-.289.237.92.166 2.152.963 2.718 1.656.07.084.27.407.157.35-.42-.207-1.003-.24-1.28-.232-3.014.326-4.285 3.67-3.69 6.035.156.93.92 1.853.763 1.236-.178-1.113-.219-2.128.093-3.292.085-.317.188-.316.284.003.88 2.978 4.507 3.12 6.527 1.754.71-.49 1.47-1.203 1.701-1.61.215-.38.197-.62-.103-.306-.655.687-1.687 1.282-2.663 1.495-.809.177-.22-.192-.055-.47 1.618-1.915-.079-5.38-2.304-6.417-.288-.142-.884-.45-1.772-.44zM6.33 4.56c.96 0 1.738.8 1.738 1.785 0 .984-.778 1.782-1.738 1.782s-1.738-.798-1.738-1.782c0-.985.78-1.783 1.738-1.783z"/></svg>