<svg viewBox="0 0 12.7 12.7" xmlns="http://www.w3.org/2000/svg"><path d="M6.372 1.846c-.215 0-.28.193-.387.397-.033.066-.24.567-.633.567H4.224c-.976 0-.821-.75-1.284-.764-.517 0-.517.538-.517 1.6 0 .85.015 1.627.012 2.125-.012 1.97.16 2.715 1.123 3.994 1.008 1.337 2.628 2.077 2.814 2.077.185 0 1.807-.74 2.814-2.077.963-1.28 1.135-2.024 1.122-3.994-.003-.498.013-1.275.013-2.126 0-1.06 0-1.6-.517-1.6-.464.015-.307.764-1.284.764H7.39c-.393 0-.599-.5-.634-.566-.104-.203-.17-.396-.385-.396Zm-.853 1.928c.4.003.4.066.4.508v5.729c0 .319-.383.039-.636-.18-.87-.752-1.763-1.399-1.763-4.25 0-.574-.002-.801 0-1.223.002-.58-.02-.58.498-.58h.95c.239 0 .416-.005.55-.004zm1.706 0c.133-.002.312.004.55.004h.95c.52 0 .497 0 .498.58v1.223c0 2.85-.892 3.498-1.762 4.25-.253.218-.638.5-.638.18V4.282c0-.442 0-.505.402-.51z"/></svg>