<svg viewBox="0 0 12.7 12.7" xmlns="http://www.w3.org/2000/svg"><path d="M5.592 1.57c-2.694.397-4.52 2.368-3.976 5.327.244 1.333 1.237 2.706 1.616 2.334.193-.189.182-.35-.195-.893-.273-.393-.548-.808-.577-1.342-.046-.846.106-1.286.443-1.04.354.316.943.884 1.67.758.601-.105.696.327.637.95-.013.128-.14.581-.145.745-.013.382.267.325 1.287.325s1.35.052 1.287-.325c-.25-1.496-.31-1.812.33-1.947.125-.001.697.06 1.052.431.174.183.565.624.392 1.335-.358 1.466-2.374 2.51-4.571 2.026-.78-.171-.956.247.124.646 3.226 1.138 6.417-1.526 6.18-4.835-.067-1.101-.532-1.841-.932-2.33-.367-.45-.598-.315-.36.478.412 1.616.31 1.935.128 2.112-.045.044-.423-.33-.78-.5a2.223 2.223 0 0 0-1.31-.212c-.345.052-.555.221-.663-.003-.145-.3-.151-.27-.39-1.092-.062-.216-.26-.994-.487-.994-.254 0-.412.698-.495.994-.369 1.309-.601 1.165-.866 1.212-.813.143-1.385-.285-1.716-.831-.219-.362.044-1.23.679-1.444.197-.066.555-.204.748-.35.253-.191.4-.388.806-.586.531-.259 1.21-.301 2.414-.005 1.018.25.998-.165.396-.455-.696-.334-1.596-.655-2.726-.489Zm.76 3.87c.038 0 .064.03.097.365.073.728.116 1.24.145 1.535.02.204.126.267-.242.264-.369.003-.263-.06-.243-.264.03-.295.058-.805.15-1.531.041-.323.054-.368.093-.368Z"/></svg>