<svg viewBox="0 0 12.7 12.7" xmlns="http://www.w3.org/2000/svg"><path d="M6.35 3.742c-.833 0-2.035.086-2.77.523-.574.342-.52.446-.199.582 1.188.5 1.507 1.592 1.362 2.08-.267.901-1.167 1.06-1.681.602-.86-.764.283-1.775-.533-2.486-.256-.223-.834.198-.967 1.613-.103 1.099.419 1.822 1.341 2.17.724.274 1.73.099 2.261-.324.997-.794 1.12-2.194.269-3.263-.234-.295-.324-.537.917-.537s1.151.242.917.537c-.851 1.069-.728 2.469.269 3.263.53.423 1.537.598 2.26.325.923-.349 1.445-1.072 1.342-2.171-.133-1.415-.711-1.836-.967-1.613-.816.711.327 1.722-.533 2.486-.514.457-1.414.3-1.681-.601-.145-.49.174-1.58 1.362-2.08.322-.137.375-.24-.2-.583-.734-.437-1.936-.523-2.769-.523Z"/></svg>