<svg viewBox="0 0 12.7 12.7" xmlns="http://www.w3.org/2000/svg"><path d="M6.887 3.351c0 .606-.487 1.098-1.089 1.098A1.093 1.093 0 0 1 4.71 3.35c0-.606.487-1.097 1.088-1.097.602 0 1.09.491 1.09 1.097zM5.815 9.176c-.01-1.898.018-2.414-.45-2.586-.51-.244-1.529-.574-1.668-1.641-.012-.377.298-.42.832-.04.464.295.784.387 1.134.42.605.056 1.185-.2 1.515-.57a2.148 2.148 0 0 0 .47-1.997A2.319 2.319 0 0 0 6.5 1.326C5.9 1.06 5.935.67 6.57.66c.381 0 1.11.236 1.626.756.615.621 1.06 1.774.649 3.124-.525 1.265-1.363 1.725-1.836 2.065-.197.422-.141 1.368-.137 2.352.009 1.896.037 3.018-.53 3.08-.607.02-.535-1.31-.526-2.862Z"/></svg>