<svg viewBox="0 0 12.7 12.7" xmlns="http://www.w3.org/2000/svg"><path d="M6.074 2.343c-.311 0-.813.029-.817.499-.005.47.561.493.966.493H7.69c.324 0 .53-.021.53.48v2.32c0 .727-.086 1.853.453 1.843.54-.009.54-.65.54-1.252 0-1.318.117-1.936 1.3-2.454 1.141-.455 1.03-.647.732-.7a2.696 2.696 0 0 0-1.662.3c-.37.228-.37.078-.37-.83 0-.699-.747-.699-.992-.699Zm-1.68 1.473c-.8 0-.943 0-.943.728v.997c0 1.338.016 1.526.445 1.53.332.005.498-.175.498-1.098 0-1.186 0-1.186.549-1.193a70.06 70.06 0 0 1 1.367.007c.346 0 .38.21.38.724v2.597c0 .379-.066.739-.48.756-.276.012-.673 0-.942 0-.874 0-.861.137-.874-.836-.01-.745-.472-.385-1.243.347-1.01.95-1.636 2.953-.25 1.351.655-.7.618-.584.628-.33.019.426.407.421.757.426a79.69 79.69 0 0 0 2.648 0c.756-.014.756-.402.756-1.663V4.786c0-.971-.21-.971-1.059-.971H4.394Z"/></svg>