<svg viewBox="0 0 12.7 12.7" xmlns="http://www.w3.org/2000/svg"><path d="M10.354 2.397c-.254-.257-.518-.215-2.092.86-.749.458-2.37 2.02-1.545.032.154-.338.233-.827-.427-.684-.664.142-2.41 1.622-3.402 3.208a4.362 4.362 0 0 0-.16.128 2.91 2.91 0 0 0-.536.544 2.505 2.505 0 0 0-.065.088 2.91 2.91 0 0 0-.034.05 1.606 1.606 0 0 0-.066.104A2.91 2.91 0 0 0 1.6 8.24a2.91 2.91 0 0 0 2.911 2.91 2.91 2.91 0 0 0 2.431-1.312c1.266-.779 3.24-2.751 3.225-3.521-.063-.501-.404-.42-.68-.302-1.807.764-.75-.405.031-1.54 1.192-1.663 1.09-1.823.836-2.078Zm-.793.818C8.25 5.06 7.1 5.951 7.836 6.857c.168.208.593.141.82.085.43-.107.47-.024.015.444C7.662 8.424 7.451 8.69 7.408 8.5a2.91 2.91 0 0 0 .012-.26 2.91 2.91 0 0 0-.06-.581 2.91 2.91 0 0 0-2.007-2.203 1.915 1.915 0 0 0-.397-.09 2.91 2.91 0 0 0-.445-.035 2.91 2.91 0 0 0-.233.01c-.195-.043.04-.25 1.047-1.249.39-.387.615-.559.502-.037-.148.572-.058.8.074.908.896.728 1.804-.5 3.66-1.748ZM5.74 6.891a1.825 1.825 0 0 1 .596 1.35 1.825 1.825 0 0 1-1.825 1.825A1.825 1.825 0 0 1 2.685 8.24 1.825 1.825 0 0 1 4.51 6.415a1.825 1.825 0 0 1 1.23.476Z"/></svg>