<svg viewBox="0 0 12.7 12.7" xmlns="http://www.w3.org/2000/svg"><path d="M4.994 10.905c-.86-.345-1.39-.647-1.741-1.392-.27-.571.056-.618.954-.026 1.03.678 3.077.44 4.017-.634.52-.594.427-.699.46-2.59-.02-3.19.438-2.997-2.577-2.944-2.11.037-2.15-.049-2.517.213-.808.636-1.292-.284-.836-.921.497-.59.512-.529 2.892-.548 2.992-.024 2.782-.038 2.975-.26.216-.249.495-.246.716-.249.558 0 .785.324.785 1.053 0 .424-.017.774-.101.97-.212.491-.08 1.295-.113 3.108-.02 2.582 0 2.08-.782 3.016-1.265 1.355-2.757 1.758-4.132 1.204Zm.92-2.278c-.614-.006-.44-.113-.44-2.365 0-2.233 0-2.169.44-2.184.487-.017.435.237.427 2.257-.009 2.224.123 2.288-.428 2.292zm1.521-.034c-.486.014-.358-.249-.392-2.323-.032-1.984-.064-2.2.404-2.188.537.013.437.393.443 2.192.008 2.242-.01 2.306-.455 2.319ZM3.898 6.252C3.9 4.266 3.884 4.09 4.33 4.09c.461 0 .404.024.383 2.188.005 2.322.033 2.331-.36 2.34-.551.012-.447-.1-.454-2.367Z"/></svg>