<svg viewBox="0 0 12.7 12.7" xmlns="http://www.w3.org/2000/svg"><path d="M6.35 1.183c-.14 0-.367.3-.61.711-.302.503-1.17 1.23-1.947 1.451-1.237.383-2.163 1.36-1.397 3.045C3.154 7.96 4.794 9 5.58 10.576c.278.545.531.94.77.94s.492-.395.77-.94c.786-1.577 2.426-2.615 3.184-4.186.766-1.684-.16-2.662-1.397-3.045-.776-.22-1.645-.948-1.948-1.45-.242-.411-.469-.712-.609-.712Zm0 1.787c.104 0 .219.104.515.382.37.347.425.365.114.622-.449.37-.605 1.417.128 2.157.597.603.796.396.728-.392-.027-.665.315-1.245.868-1.29.581-.013 1.111.82.47 1.856C8.56 7.212 7.3 8.148 6.84 8.73c-.232.274-.415.508-.491.508-.076 0-.257-.234-.489-.508-.46-.583-1.72-1.52-2.332-2.426-.642-1.037-.112-1.869.469-1.855.553.044.895.624.868 1.29-.068.787.131.994.728.391.733-.74.577-1.788.128-2.157-.31-.257-.257-.275.114-.622.296-.278.41-.382.515-.382Z"/></svg>