<svg viewBox="0 0 12.7 12.7" xmlns="http://www.w3.org/2000/svg"><path d="M4.938.696c-.343 0-.465.536-.458.976.005.28 0 .765 0 1.177 0 1.731 0 2.234-.731 1.408-.212-.24-.312-.328-.8-.258-.442.063.105 1.085.215 1.323.415.897 1.82 4.045 2.154 5.242.187.67.235 1.44 1.032 1.44s.845-.77 1.032-1.44c.334-1.197 1.739-4.345 2.154-5.242.11-.238.657-1.26.215-1.323-.488-.07-.588.019-.8.258-.731.826-.731.323-.731-1.408 0-.412-.005-.897 0-1.177.007-.44-.115-.976-.458-.976-.362 0-.47.55-.47.811V3.88c0 .301-.149.816-.942.816-.793 0-.942-.515-.942-.816V1.507c0-.261-.108-.81-.47-.81Zm2.86 4.51c.112.003.222.087.373.249.367.394.141 1.103-.873 1.825-.575.41-.978.576-.422 1.037.21.174.187.54.187.78 0 .087.019.409-.179.658-.2.254-.343.476-.356.84-.005.143-.082.202-.178.202-.096 0-.173-.059-.178-.202-.013-.364-.155-.586-.356-.84-.198-.25-.179-.571-.179-.658 0-.24-.023-.606.187-.78.556-.461.153-.628-.422-1.037-1.014-.722-1.24-1.431-.873-1.825.322-.346.457-.334.817.062.282.309.57.43 1.004.43.434 0 .722-.121 1.004-.43.191-.21.319-.313.445-.31Z"/></svg>