<svg viewBox="0 0 12.7 12.7" xmlns="http://www.w3.org/2000/svg"><path d="M7.447.823c-.17.001-.203.518-.384 2.848-.18 2.334-.295 2.65-.708 2.996-.82.685-1.145 1.308-1.144 2.415 0 1.242.923 2.36 2.284 2.559 1.036.15 1.036-.736.296-.912-1.042-.25-1.673-.932-1.536-2.078.056-.466.407-1.33 1.453-1.35.616-.01 1.258.257 1.576-.038.391-.361-.095-.466-.623-.69-.272-.116-.641-.124-.84-2.966C7.686 1.664 7.638.822 7.447.822ZM3.532 6.021c-.196-.01-.14.19.426.799.41.44.362.547.15.928-.223.4-.304.356-.955.447-1.044.146-1.127.37-.018.594.745.15.732.242.785.67.047.4.077.52-.314.968-.74.847-.339.802.4.325.312-.2.435-.193.748.103.543.512 1.12.732.805.29-.1-.143-.245-.34-.451-.692-.52-.887-.531-2.094-.052-2.872.306-.497.436-.686.052-.766-.16-.033-.303-.08-.633-.304-.453-.308-.79-.482-.943-.49Zm4.274 1.953a.967.967 0 1 0 0 1.934.967.967 0 0 0 0-1.934z"/></svg>