<svg viewBox="0 0 12.7 12.7" xmlns="http://www.w3.org/2000/svg"><path d="M6.286.962c-.18 0-.363.434-1.637 3.993-.506 1.414-.943 2.683-1.009 2.753-.315.34-.423-1.226-.201-1.827.206-.557-.302-.374-.606.223-.431.845-.785 1.9.047 2.911.206.252.296.375.256.5-.077.238-.284.912-.284 1.168-.09.406.065.749.46.265.217-.266.518-1.064.542-1.135.063-.183.312-.054.946.008 1.88.138 4.25-.676 5.987-2.304.613-.575.111-.603-.115-.415-.998.834-3.565 1.548-4.72 1.498-.56-.024-1.283-.064-1.447-.208-.045-.04.061-.46.224-.963.099-.306.145-.449.232-.77.03-.111.12-.058.187.048.43.68 1.162 1.109 1.966 1.109A2.3 2.3 0 0 0 8.632 3.79c-.145-.204-.107-.368-.102-.612.007-.454-.192-.565-.555-.28-.195.155-.332.37-.523.34-.111-.015-.234-.017-.338-.02-.339 0-.674.075-.981.22-.24.048-.16-.144.001-.697.337-1.156.507-1.675.21-1.768a.19.19 0 0 0-.058-.011Zm.828 3.177a1.378 1.378 0 1 1 0 2.756 1.378 1.378 0 0 1 0-2.756z"/></svg>