<svg viewBox="0 0 12.7 12.7" xmlns="http://www.w3.org/2000/svg"><path d="M6.35.64c-.126 0-.277.065-.4.393-.175.468-.96 1.19-1.367 1.359-.378.156-.404.45-.092.682.252.186.78.591 1 .924.361.544.37.705.42 2.148.02.57.076 1.47.116 1.625.07.272.282.272.323.272.041 0 .253 0 .323-.272.04-.155.096-1.056.115-1.625.05-1.443.069-1.604.43-2.148.22-.333.74-.738.99-.924.313-.232.287-.526-.09-.682C7.71 2.223 6.924 1.5 6.75 1.033 6.627.705 6.476.64 6.35.64ZM2.641 3.495a.187.187 0 0 0-.056.006c-.088.026-.195.143-.22.364-.051.45-.417 1.068-.786 1.361-.29.232-.319.412.104.539.524.169 1.229.621 1.39 1.085.676 1.953.772 2.361 1.04 2.288.27-.074.133-.505-.24-2.547-.075-.408.287-1.197.65-1.61.297-.326.18-.466-.188-.516-.467-.063-1.1-.405-1.375-.765-.097-.147-.227-.203-.319-.205Zm7.418 0c-.092.002-.222.058-.32.205-.275.36-.907.702-1.374.765-.368.05-.485.19-.187.516.362.413.724 1.202.65 1.61-.374 2.042-.51 2.473-.241 2.547.268.073.364-.335 1.04-2.288.161-.464.866-.916 1.39-1.085.423-.127.394-.307.104-.539-.369-.293-.735-.911-.786-1.361-.025-.22-.132-.338-.22-.364a.186.186 0 0 0-.056-.006zM5.64 7.447c-.135 0-.323.13-.664.385-.312.234-.222.315.27.804.56.556.804.698.805 1.677.001.552.008 1.33.088 1.564.06.171.154.183.21.183.056 0 .15-.012.21-.183.08-.235.087-1.012.088-1.564.002-.979.244-1.121.804-1.677.493-.489.583-.57.27-.804-.34-.255-.528-.384-.663-.385-.061 0-.111.027-.16.08-.115.13-.153.203-.008.34.211.197.208.272-.07.54-.22.216-.34.32-.471.31-.13.01-.25-.094-.472-.31-.277-.268-.28-.343-.07-.54.146-.137.108-.21-.007-.34-.049-.053-.099-.08-.16-.08Z"/></svg>