<svg viewBox="0 0 12.7 12.7" xmlns="http://www.w3.org/2000/svg"><path d="M3.832 2.498c-.51.008-1.576.821-2.04 2.197-.354 1.053-.528 2.552.388 4.077.159.264.682.903.92 1.09.766.606 1.252.342 1.415-.32.33-1.335.948-1.504 1.835-1.504.886 0 1.505.17 1.835 1.504.163.662.649.926 1.416.32.236-.187.76-.826.92-1.09.915-1.525.74-3.025.386-4.077-.463-1.376-1.527-2.19-2.039-2.197-.305-.004-.54.237-.62.629-.264 1.242-.91 1.596-1.898 1.596-.988 0-1.634-.353-1.896-1.596-.083-.392-.318-.633-.621-.63Zm-.337 1.627c.085 0 .183.099.299.38.288.662 1.166 1.338 2.556 1.338 1.39 0 2.268-.677 2.556-1.338.265-.642.437-.332.576-.066.604 1.148.677 2.738.073 3.691-.299.472-.459.714-.682.078-.34-.972-1.407-1.33-2.523-1.328-1.116-.002-2.182.355-2.523 1.328-.225.636-.383.394-.683-.078-.603-.953-.53-2.543.074-3.691.078-.15.167-.314.277-.314Z"/></svg>